<?xml version="1.0" encoding="UTF-8" standalone="no"?>
<!-- Created with Inkscape (http://www.inkscape.org/) -->

<svg
   xmlns:dc="http://purl.org/dc/elements/1.1/"
   xmlns:cc="http://creativecommons.org/ns#"
   xmlns:rdf="http://www.w3.org/1999/02/22-rdf-syntax-ns#"
   xmlns:svg="http://www.w3.org/2000/svg"
   xmlns="http://www.w3.org/2000/svg"
   xmlns:sodipodi="http://sodipodi.sourceforge.net/DTD/sodipodi-0.dtd"
   xmlns:inkscape="http://www.inkscape.org/namespaces/inkscape"
   width="300"
   height="150"
   viewBox="0 0 79.374998 39.687501"
   version="1.1"
   id="svg8"
   inkscape:version="0.92.4 (5da689c313, 2019-01-14)"
   sodipodi:docname="logo.svg">
  <defs
     id="defs2" />
  <sodipodi:namedview
     id="base"
     pagecolor="#ffffff"
     bordercolor="#666666"
     borderopacity="1.0"
     inkscape:pageopacity="0.0"
     inkscape:pageshadow="2"
     inkscape:zoom="2.8567114"
     inkscape:cx="183.13613"
     inkscape:cy="79.149921"
     inkscape:document-units="mm"
     inkscape:current-layer="layer1"
     showgrid="false"
     units="px"
     inkscape:window-width="2560"
     inkscape:window-height="1373"
     inkscape:window-x="-9"
     inkscape:window-y="-9"
     inkscape:window-maximized="1" />
  <metadata
     id="metadata5">
    <rdf:RDF>
      <cc:Work
         rdf:about="">
        <dc:format>image/svg+xml</dc:format>
        <dc:type
           rdf:resource="http://purl.org/dc/dcmitype/StillImage" />
        <dc:title></dc:title>
      </cc:Work>
    </rdf:RDF>
  </metadata>
  <g
     inkscape:label="Layer 1"
     inkscape:groupmode="layer"
     id="layer1"
     transform="translate(0,-257.31248)">
    <text
       xml:space="preserve"
       style="font-style:normal;font-weight:normal;font-size:10.58333302px;line-height:1.25;font-family:sans-serif;letter-spacing:0px;word-spacing:0px;fill:#000000;fill-opacity:1;stroke:none;stroke-width:0.26458332"
       x="7.07302"
       y="269.23184"
       id="text5071"><tspan
         sodipodi:role="line"
         id="tspan5069"
         x="7.07302"
         y="278.88733"
         style="baseline-shift:baseline;stroke-width:0.26458332" /></text>
    <path
       style="fill:none;stroke:#000000;stroke-width:0.51465708px;stroke-linecap:butt;stroke-linejoin:miter;stroke-opacity:1"
       d="m 28.220411,288.79548 v 3.88543 l 2.746856,2.74684 h 3.89337 l 2.750838,-2.75083 v -3.88144 l -2.752828,-2.7528 h -3.88342 l -2.715548,-0.0329 z"
       id="path5109"
       inkscape:connector-curvature="0"
       sodipodi:nodetypes="cccccccccc" />
    <path
       style="fill:none;stroke:#000000;stroke-width:0.51465708px;stroke-linecap:butt;stroke-linejoin:miter;stroke-opacity:1"
       d="m 28.228372,279.41041 v 3.88542 l -5.42e-4,2.74685 h 4.694084 1.946684 l 2.75084,-2.75083 v -3.88144 l -2.752828,-2.7528 h -3.883421 z"
       id="path5109-7"
       inkscape:connector-curvature="0"
       sodipodi:nodetypes="cccccccccc" />
    <path
       style="fill:none;stroke:#000000;stroke-width:0.51465708px;stroke-linecap:butt;stroke-linejoin:miter;stroke-opacity:1"
       d="m 28.228373,283.29583 -0.0079,5.49965"
       id="path5132"
       inkscape:connector-curvature="0" />
    <path
       style="fill:none;stroke:#000000;stroke-width:0.51465708px;stroke-linecap:butt;stroke-linejoin:miter;stroke-opacity:1"
       d="m 50.098448,279.41041 -2.75283,-2.7528 h -3.883417 l -2.754818,2.7528 v 3.88542 l 2.746855,2.74685 h 3.89337"
       id="path5109-9-1"
       inkscape:connector-curvature="0"
       sodipodi:nodetypes="ccccccc" />
    <path
       style="fill:none;stroke:#000000;stroke-width:0.51465708px;stroke-linecap:butt;stroke-linejoin:miter;stroke-opacity:1"
       d="M 47.347608,286.04268 H 43.46419 l -2.754815,2.7528 v 3.88543 l 2.746855,2.74684 h 3.893369 l 2.750837,-2.75083"
       id="path5109-9-6-4"
       inkscape:connector-curvature="0"
       sodipodi:nodetypes="ccccccc" />
    <path
       style="fill:none;stroke:#000000;stroke-width:0.51465708px;stroke-linecap:butt;stroke-linejoin:miter;stroke-opacity:1"
       d="m 62.577456,279.41041 -2.752828,-2.7528 h -3.883419 l -2.754817,2.7528 v 3.88542 l 2.746855,2.74685 h 3.893371"
       id="path5109-9-0"
       inkscape:connector-curvature="0"
       sodipodi:nodetypes="ccccccc" />
    <path
       style="fill:none;stroke:#000000;stroke-width:0.51465708px;stroke-linecap:butt;stroke-linejoin:miter;stroke-opacity:1"
       d="m 59.826618,286.04268 h -3.883419 l -2.754816,2.7528 v 3.88543 l 2.746854,2.74684 h 3.893369 l 2.75084,-2.75083"
       id="path5109-9-6-6"
       inkscape:connector-curvature="0"
       sodipodi:nodetypes="ccccccc" />
    <path
       style="fill:none;stroke:#000000;stroke-width:0.51465708px;stroke-linecap:butt;stroke-linejoin:miter;stroke-opacity:1"
       d="m 75.056464,279.41041 -2.752828,-2.7528 h -3.883419 l -2.754817,2.7528 v 3.88542 l 2.746857,2.74685 h 3.893369"
       id="path5109-9-9"
       inkscape:connector-curvature="0"
       sodipodi:nodetypes="ccccccc" />
    <path
       style="fill:none;stroke:#000000;stroke-width:0.51465708px;stroke-linecap:butt;stroke-linejoin:miter;stroke-opacity:1"
       d="m 65.66739,292.68091 2.746855,2.74684 h 3.893368 l 2.75084,-2.75083 v -3.88144 l -2.752827,-2.7528 h -3.883418"
       id="path5109-9-6-9"
       inkscape:connector-curvature="0"
       sodipodi:nodetypes="ccccccc" />
    <g
       aria-label="Stonecroft"
       transform="matrix(1.6452686,0.17570364,-0.14220269,1.3315696,31.562796,-98.713984)"
       style="font-style:normal;font-variant:normal;font-weight:normal;font-stretch:normal;font-size:10.58333302px;line-height:1.25;font-family:'Old English Text MT';-inkscape-font-specification:'Old English Text MT';letter-spacing:0px;word-spacing:0px;fill:#000000;fill-opacity:1;stroke:none;stroke-width:0.26458332"
       id="text5297">
      <path
         d="m 6.089863,284.53385 1.4590926,-1.98997 -0.2380983,-0.25563 q -0.1289772,-0.13915 -0.1523492,-0.18466 -0.026711,-0.052 -0.010901,-0.1012 0.01581,-0.0492 0.059735,-0.0677 0.045506,-0.0234 0.089785,-0.009 0.068878,0.0221 0.2326479,0.20503 l 1.4621549,1.61515 0.2313464,-0.82126 q 0.1085588,-0.38849 0.3943985,-0.85571 0.2874207,-0.47214 0.6651672,-0.75242 0.374408,-0.28677 0.795039,-0.37957 0.417293,-0.0993 0.840401,0.0367 0.777337,0.2498 1.319801,1.14603 0.539125,0.88973 0.83462,2.82476 -0.42113,0.49973 -0.926938,1.17851 0.221853,1.62368 -0.06431,2.51417 -0.203949,0.63466 -0.590132,0.89052 -0.38952,0.24935 -0.75359,0.13236 -0.388668,-0.1249 -0.575654,-0.64094 -0.191906,-0.51761 0.06896,-1.32939 0.102766,-0.31979 0.325001,-0.77488 l -0.550525,-0.584 -0.193402,0.70318 q -0.07729,0.25742 -0.290219,0.66665 -0.217846,0.40765 -0.480158,0.63274 -0.2607311,0.22018 -0.5559117,0.27731 -0.2951807,0.0571 -0.5706925,-0.0314 -0.437867,-0.1407 -0.6777337,-0.55974 -0.1532334,-0.26636 -0.1799759,-0.77432 l -0.060619,-0.0141 q -0.4575464,-0.14703 -0.9182866,-0.74018 -0.464079,-0.59965 -0.9886533,-1.95693 z m 2.1023979,-1.2893 q -0.6319662,0.6491 -0.8990107,1.04094 -0.2719644,0.39026 -0.3778917,0.71989 -0.1486143,0.46247 0.018859,0.83653 0.1674731,0.37407 0.5167827,0.48632 0.3443898,0.11067 0.6448334,-0.0642 0.3020246,-0.17977 0.463287,-0.68159 0.1075082,-0.33455 0.3607908,-1.545 z m 1.488512,1.63448 q -0.1252318,0.65996 -0.3165333,1.25526 -0.2150165,0.6691 -0.462569,0.89894 -0.2475525,0.22984 -0.6263707,0.26009 0.112481,0.42695 0.4470311,0.53446 0.3050309,0.098 0.5903613,-0.11425 0.3728266,-0.28185 0.6558263,-1.16251 0.1312234,-0.40835 0.2794734,-1.05548 z m 0.6360761,0.33468 q 0.245024,-1.21854 0.392057,-1.67608 0.200787,-0.62482 0.592066,-0.86276 0.386359,-0.23951 0.779947,-0.11303 0.34439,0.11067 0.564754,0.53973 0.221945,0.42414 0.337641,1.60118 l 0.61315,-0.87769 q -0.191397,-0.77257 -0.541612,-1.27049 -0.350215,-0.49792 -0.906158,-0.67658 -0.364069,-0.11699 -0.784524,-0.008 -0.423794,0.10264 -0.77588,0.48887 -0.357006,0.38464 -0.546726,0.97502 -0.1533577,0.47723 -0.2936922,1.25175 z m 1.351276,1.48725 q 0.254916,-0.45545 0.436576,-0.7336 0.183241,-0.28308 0.687114,-0.98962 -0.160682,-1.25663 -0.667427,-1.41948 -0.157435,-0.0506 -0.331201,0.051 -0.172184,0.0967 -0.241748,0.31312 -0.08537,0.26568 -0.151235,0.67332 -0.200226,1.12979 -0.309315,1.46926 z m 1.268396,-0.28175 q -0.783566,1.13775 -1.034946,1.92001 -0.129642,0.40342 -0.02841,0.69649 0.0659,0.2003 0.238098,0.25564 0.182034,0.0585 0.342444,-0.0691 0.259327,-0.19892 0.415847,-0.68598 0.240312,-0.74782 0.06697,-2.11708 z"
         style="font-style:normal;font-variant:normal;font-weight:normal;font-stretch:normal;font-family:'Old English Text MT';-inkscape-font-specification:'Old English Text MT';stroke-width:0.26458332"
         id="path5307"
         inkscape:connector-curvature="0" />
      <path
         d="m 12.068006,278.50624 -0.469219,-2.24433 0.09478,-0.11609 1.072141,0.94203 0.656894,-0.8046 0.452337,0.3693 -0.656894,0.8046 2.694005,2.19945 0.698279,-0.17707 0.009,-0.4196 0.201793,-0.002 -0.01446,1.45584 q -0.829641,0.0765 -1.461106,0.51494 l -0.08006,-0.0654 q 0.02265,-0.24836 -0.05096,-0.39518 -0.09255,-0.18897 -0.372761,-0.41774 l -2.293707,-1.87264 -0.303936,0.37228 z"
         style="font-style:normal;font-variant:normal;font-weight:normal;font-stretch:normal;font-family:'Old English Text MT';-inkscape-font-specification:'Old English Text MT';stroke-width:0.26458332"
         id="path5309"
         inkscape:connector-curvature="0" />
      <path
         d="m 17.637786,273.16666 2.507761,2.9415 q -0.385364,0.74278 -0.518088,1.12077 -0.103331,0.28503 -0.143995,0.6117 -0.865242,0.14007 -1.352817,0.32486 -0.370307,0.13915 -0.741574,0.42851 l -0.106378,-0.0451 q 0.04215,-0.25324 -0.0057,-0.38901 -0.05894,-0.18064 -0.330497,-0.49917 l -1.840589,-2.15894 q 0.515135,-0.85341 0.654218,-1.72576 0.873559,-0.10641 1.877651,-0.60933 z m 0.357882,4.11567 1.38511,-0.45426 -2.132268,-2.50106 q -0.674795,0.18822 -0.935699,0.28842 -0.185154,0.0696 -0.415884,0.20516 z"
         style="font-style:normal;font-variant:normal;font-weight:normal;font-stretch:normal;font-family:'Old English Text MT';-inkscape-font-specification:'Old English Text MT';stroke-width:0.26458332"
         id="path5311"
         inkscape:connector-curvature="0" />
      <path
         d="m 21.5839,269.82022 1.126933,0.27091 0.197131,-0.6696 0.194637,0.0502 q -0.152017,0.46597 -0.135523,0.65256 0.02199,0.2488 0.217903,0.59514 l 1.208545,2.1365 q 0.167924,0.29686 0.343797,0.38736 0.111903,0.0614 0.18387,0.0207 0.06297,-0.0356 0.197633,-0.34334 l 0.186823,0.0784 -0.51925,1.33865 q -0.533616,-0.0722 -0.763692,-0.22702 -0.228123,-0.16188 -0.502908,-0.64765 l -1.401912,-2.47834 -0.729435,-0.14547 -0.400443,0.9924 1.447709,2.5593 0.507038,0.14066 -0.432291,1.09354 -1.164461,-0.19031 0.167646,-0.5223 -1.30014,-2.29843 q -0.277329,-0.49027 -0.472966,-0.60521 -0.133621,-0.0788 -0.219081,-0.0304 -0.08996,0.0509 -0.191,0.29209 l -0.17919,-0.0649 0.52552,-1.30658 q 0.553561,0.055 0.74411,0.16092 0.190549,0.10595 0.353384,0.39382 l 0.08651,0.15293 z"
         style="font-style:normal;font-variant:normal;font-weight:normal;font-stretch:normal;font-family:'Old English Text MT';-inkscape-font-specification:'Old English Text MT';stroke-width:0.26458332"
         id="path5313"
         inkscape:connector-curvature="0" />
      <path
         d="m 26.428512,267.66819 1.967453,1.06926 -1.584908,2.3411 0.335146,0.87877 1.289606,0.017 0.561024,-0.80575 0.161468,0.10434 -1.148234,1.68786 q -0.57561,-0.0736 -0.926982,-0.0668 -0.351372,0.007 -0.967161,0.10338 l -0.04604,-0.12071 q 0.127337,-0.15918 0.127047,-0.31946 0.0027,-0.16695 -0.177766,-0.64013 l -1.053317,-2.76186 q 0.391261,-0.33726 0.639061,-0.58663 0.178608,-0.18426 0.8236,-0.90036 z m -0.52215,0.83517 -0.05471,0.0596 0.834183,2.18727 0.931043,-1.37273 z"
         style="font-style:normal;font-variant:normal;font-weight:normal;font-stretch:normal;font-family:'Old English Text MT';-inkscape-font-specification:'Old English Text MT';stroke-width:0.26458332"
         id="path5315"
         inkscape:connector-curvature="0" />
      <path
         d="m 30.459494,266.42303 1.493756,0.39856 -0.323798,0.92383 -1.12794,-0.30761 0.835883,3.18389 1.096446,0.18765 0.4314,-0.51396 0.105095,0.1968 -1.002057,1.23012 q -0.550693,-0.14394 -0.92338,-0.17966 -0.374,-0.0407 -0.89376,-0.006 l -0.03149,-0.11996 q 0.143446,-0.16589 0.161685,-0.32027 0.02879,-0.21593 -0.08012,-0.63079 l -0.746651,-2.84401 q 0.549986,-0.44893 1.004933,-1.19881 z"
         style="font-style:normal;font-variant:normal;font-weight:normal;font-stretch:normal;font-family:'Old English Text MT';-inkscape-font-specification:'Old English Text MT';stroke-width:0.26458332"
         id="path5317"
         inkscape:connector-curvature="0" />
      <path
         d="m 35.643404,265.41046 0.91674,0.80209 -0.66267,0.80577 -0.771388,-0.70996 -0.432735,0.53924 0.470231,2.97581 0.64803,0.32661 0.459605,-0.50164 0.143209,0.14479 -1.141356,1.25287 q -0.477433,-0.30648 -0.789085,-0.42465 -0.306547,-0.11897 -0.65795,-0.15762 l -0.01774,-0.11229 q 0.199586,-0.19373 0.240938,-0.36245 0.04565,-0.17463 -0.02613,-0.62891 l -0.329081,-2.08256 q -0.06211,-0.39303 -0.174148,-0.50612 -0.107744,-0.119 -0.214934,-0.10206 -0.117399,0.0186 -0.289309,0.25499 l -0.145894,-0.12867 0.93102,-1.09407 q 0.486294,0.26322 0.683243,0.48323 0.126283,0.13699 0.169031,0.40752 z"
         style="font-style:normal;font-variant:normal;font-weight:normal;font-stretch:normal;font-family:'Old English Text MT';-inkscape-font-specification:'Old English Text MT';stroke-width:0.26458332"
         id="path5319"
         inkscape:connector-curvature="0" />
      <path
         d="m 41.333727,265.74831 0.179901,3.86121 q -0.759635,0.35096 -1.096113,0.56839 -0.256289,0.16197 -0.488563,0.39524 -0.769661,-0.41939 -1.268233,-0.57205 -0.37792,-0.11689 -0.848628,-0.11565 l -0.05643,-0.10084 q 0.188461,-0.17433 0.233828,-0.31094 0.06409,-0.17888 0.04461,-0.59701 L 37.90206,266.0427 q 0.929983,-0.3589 1.574352,-0.96315 0.755618,0.45108 1.857315,0.66876 z m -2.238616,3.47209 1.373027,0.48956 -0.152963,-3.28306 q -0.648641,-0.26465 -0.916234,-0.3453 -0.18896,-0.0584 -0.454389,-0.0926 z"
         style="font-style:normal;font-variant:normal;font-weight:normal;font-stretch:normal;font-family:'Old English Text MT';-inkscape-font-specification:'Old English Text MT';stroke-width:0.26458332"
         id="path5321"
         inkscape:connector-curvature="0" />
      <path
         d="m 45.357336,263.49254 -0.201064,0.8544 -0.934039,-0.26694 -0.05924,1.24399 0.800078,0.0381 -0.02753,0.57812 -0.800078,-0.0381 -0.164933,3.46356 0.56239,0.46653 0.418105,-0.30602 0.111839,0.15018 -1.243501,0.90823 q -0.607371,-0.60835 -1.268572,-0.84678 l -0.02507,-0.12535 q 0.191478,-0.10988 0.269888,-0.23548 0.133961,-0.20573 0.148218,-0.50512 l 0.143794,-3.01965 -0.485209,-0.0231 0.02753,-0.57812 0.485208,0.0231 0.05924,-1.24399 q 0.79934,-0.48963 1.208843,-0.83228 z"
         style="font-style:normal;font-variant:normal;font-weight:normal;font-stretch:normal;font-family:'Old English Text MT';-inkscape-font-specification:'Old English Text MT';stroke-width:0.26458332"
         id="path5323"
         inkscape:connector-curvature="0" />
      <path
         d="m 46.009244,265.77264 1.64934,-1.59276 0.148732,0.0184 -0.22603,1.40919 1.030871,0.12726 -0.07154,0.57955 -1.030871,-0.12726 -0.426094,3.45162 0.521866,0.4966 0.359894,-0.21592 0.109224,0.16969 -1.239747,0.76336 q -0.506735,-0.66134 -1.214182,-0.96215 l 0.01266,-0.10258 q 0.222243,-0.11315 0.307277,-0.25365 0.110614,-0.179 0.154933,-0.53801 l 0.362781,-2.93875 -0.47697,-0.0589 z"
         style="font-style:normal;font-variant:normal;font-weight:normal;font-stretch:normal;font-family:'Old English Text MT';-inkscape-font-specification:'Old English Text MT';stroke-width:0.26458332"
         id="path5325"
         inkscape:connector-curvature="0" />
    </g>
  </g>
</svg>
